<?xml version="1.0" standalone="no"?>
<!DOCTYPE svg PUBLIC "-//W3C//DTD SVG 20010904//EN"
 "http://www.w3.org/TR/2001/REC-SVG-20010904/DTD/svg10.dtd">
<svg version="1.0" xmlns="http://www.w3.org/2000/svg"
 width="500.000000pt" height="500.000000pt" viewBox="0 0 500.000000 500.000000"
 preserveAspectRatio="xMidYMid meet">

<g transform="translate(0.000000,500.000000) scale(0.100000,-0.100000)"
fill="#000000" stroke="none">
<path d="M1456 3077 c-271 -770 -309 -869 -345 -901 -29 -27 -89 -45 -148 -46
-29 0 -53 -4 -53 -10 0 -6 105 -10 295 -10 291 0 394 12 191 22 -160 9 -206
43 -193 141 5 34 106 334 148 440 l12 27 325 -2 326 -3 78 -214 c84 -233 97
-286 78 -330 -16 -38 -51 -53 -142 -59 -43 -2 -78 -8 -78 -13 0 -5 151 -9 335
-9 l335 0 0 -147 c1 -173 17 -276 56 -359 53 -113 169 -199 324 -239 100 -26
317 -31 420 -11 161 32 297 121 353 232 62 122 60 103 66 774 6 565 7 618 24
643 25 38 71 59 144 65 35 2 63 9 63 13 0 5 -112 9 -250 9 -137 0 -250 -4
-250 -9 0 -4 31 -11 69 -13 76 -6 122 -26 155 -71 21 -28 21 -37 24 -575 2
-317 -1 -581 -7 -628 -31 -255 -194 -403 -466 -421 -224 -14 -358 62 -419 241
-20 59 -21 83 -24 693 -3 605 -2 635 16 676 23 52 67 77 153 84 33 3 59 10 59
14 0 5 -166 9 -370 9 -203 0 -370 -4 -370 -9 0 -4 29 -11 65 -13 77 -7 124
-31 147 -78 16 -32 18 -75 18 -447 0 -277 -3 -413 -10 -413 -30 0 -82 33 -104
67 -18 27 -505 1301 -618 1616 -10 26 -12 27 -86 27 l-77 0 -269 -763z m289
413 c25 -80 93 -274 151 -432 57 -157 104 -289 104 -292 0 -3 -142 -6 -316 -6
-249 0 -315 3 -312 13 3 6 74 211 159 454 96 276 156 435 161 425 3 -9 27 -82
53 -162z"/>
</g>
</svg>
